<?xml version="1.0" standalone="no"?>
<!DOCTYPE svg PUBLIC "-//W3C//DTD SVG 20010904//EN"
 "http://www.w3.org/TR/2001/REC-SVG-20010904/DTD/svg10.dtd">
<svg version="1.0" xmlns="http://www.w3.org/2000/svg"
 width="200.000000pt" height="200.000000pt" viewBox="0 0 200.000000 200.000000"
 preserveAspectRatio="xMidYMid meet">

<g transform="translate(0.000000,200.000000) scale(0.100000,-0.100000)"
fill="#000000" stroke="none">
<path d="M860 1624 c-234 -50 -436 -254 -485 -489 -95 -454 305 -855 760 -760
234 49 441 256 490 490 95 456 -309 857 -765 759z m246 -75 c194 -35 362 -187
430 -389 26 -76 26 -244 0 -320 -61 -182 -194 -315 -376 -376 -76 -26 -244
-26 -320 0 -95 32 -168 77 -236 144 -218 218 -217 567 2 786 134 133 313 189
500 155z"/>
<path d="M966 1264 c-3 -9 -6 -63 -6 -120 l0 -104 -104 0 c-57 0 -111 -3 -120
-6 -21 -8 -21 -60 0 -68 9 -3 63 -6 120 -6 l104 0 0 -104 c0 -57 3 -111 6
-120 8 -21 60 -21 68 0 3 9 6 63 6 120 l0 104 104 0 c57 0 111 3 120 6 9 4 16
18 16 34 0 16 -7 30 -16 34 -9 3 -63 6 -120 6 l-104 0 0 104 c0 57 -3 111 -6
120 -4 9 -18 16 -34 16 -16 0 -30 -7 -34 -16z"/>
</g>
</svg>
