<svg width="81" height="89" viewBox="0 0 81 89" fill="none" xmlns="http://www.w3.org/2000/svg">
<path d="M40.5 86C39.9633 86 39.4357 85.8625 38.9679 85.6009L4.59293 66.3701C4.10965 66.0998 3.7074 65.7064 3.42747 65.2303C3.14754 64.7543 3 64.2127 3 63.6613V25.3387C3 24.7872 3.14754 24.2457 3.42747 23.7697C3.7074 23.2936 4.10965 22.9002 4.59293 22.6299L38.9679 3.39914C39.4357 3.13746 39.9633 3 40.5 3C41.0367 3 41.5643 3.13746 42.0321 3.39914L76.4071 22.6299C76.8903 22.9002 77.2926 23.2936 77.5725 23.7697C77.8525 24.2457 78 24.7872 78 25.3387V63.6613C78 64.2127 77.8525 64.7543 77.5725 65.2303C77.2926 65.7064 76.8903 66.0998 76.4071 66.3701L42.0321 85.6009C41.5643 85.8625 41.0367 86 40.5 86ZM40.5 86L40.8707 44.5M77.5691 23.7642L40.8707 44.5M40.8707 44.5L3.43281 23.7607" stroke="white" stroke-width="5" stroke-linecap="round" stroke-linejoin="round"/>
</svg>
